# Blender v2.72 (sub 0) OBJ File: 'block.blend'
# www.blender.org
o Cube_Cube.001
v -0.500000 0.000000 0.500000
v -0.500000 0.000000 -0.500000
v 0.500000 0.000000 -0.500000
v 0.500000 0.000000 0.500000
v 0.000000 1.000000 0.707107
v -0.707107 1.000000 0.000000
v 0.000000 1.000000 -0.707107
v 0.707107 1.000000 0.000000
vt 0.341032 0.085039
vt 0.341032 0.495643
vt 0.000000 0.290341
vt 0.047889 0.580682
vt 0.425232 0.455256
vt 0.341032 0.000000
vt 0.666054 0.094287
vt 0.666054 0.464619
vt 1.000000 0.821209
vt 0.666054 0.821209
vt 0.666054 0.410604
vt 1.000000 0.410604
vt 0.666054 0.000000
vt 0.341032 0.464619
vt 0.666054 0.558905
vt 0.425232 0.919875
vt 0.666054 0.929237
vt 0.333946 1.000000
vt 0.000000 1.000000
vt 0.166973 0.580682
vt 0.047889 0.000000
vt 1.000000 0.000000
vn 0.000000 -0.202800 0.979200
vn 0.692400 0.202800 0.692400
vn 0.979200 -0.202800 0.000000
vn 0.692400 0.202800 -0.692400
vn 0.000000 -1.000000 0.000000
vn 0.000000 1.000000 0.000000
vn 0.000000 -0.202800 -0.979200
vn -0.692400 0.202800 -0.692400
vn -0.979200 -0.202800 0.000000
vn -0.692400 0.202800 0.692400
s off
f 1/1/1 4/2/1 5/3/1
f 5/3/2 4/2/2 8/4/2
f 8/5/3 4/6/3 3/7/3
f 8/5/4 3/7/4 7/8/4
f 2/9/5 3/10/5 4/11/5
f 7/12/6 6/11/6 5/13/6
f 3/14/7 2/15/7 7/16/7
f 7/16/8 2/15/8 6/17/8
f 2/18/9 1/19/9 6/20/9
f 5/3/10 6/21/10 1/1/10
f 1/12/5 2/9/5 4/11/5
f 8/22/6 7/12/6 5/13/6
