# Blender v2.72 (sub 0) OBJ File: 'sentinel_tower.blend'
# www.blender.org
o Cylinder
v 0.000000 0.000000 -0.500000
v 0.000000 1.800000 -0.500000
v 0.353553 0.000000 -0.353553
v 0.353553 1.800000 -0.353553
v 0.500000 0.000000 0.000000
v 0.500000 1.800000 0.000000
v 0.353553 0.000000 0.353553
v 0.353553 1.800000 0.353553
v -0.000000 0.000000 0.500000
v -0.000000 1.800000 0.500000
v -0.353553 0.000000 0.353553
v -0.353553 1.800000 0.353553
v -0.500000 0.000000 -0.000000
v -0.500000 1.800000 -0.000000
v -0.353553 0.000000 -0.353553
v -0.353553 1.800000 -0.353553
v 0.000000 2.000000 -0.400000
v 0.282843 2.000000 -0.282843
v 0.400000 2.000000 0.000000
v 0.282843 2.000000 0.282843
v -0.000000 2.000000 0.400000
v -0.282843 2.000000 0.282843
v -0.400000 2.000000 -0.000000
v -0.282843 2.000000 -0.282843
vt 0.493361 0.073783
vt 0.595539 0.094841
vt 0.595539 0.732090
vt 0.740041 0.094841
vt 0.740041 0.732090
vt 0.493361 0.658307
vt 0.391183 0.637249
vt 0.391183 0.000000
vt 0.246681 0.637249
vt 0.246681 0.000000
vt 0.246681 0.658307
vt 0.144502 0.637249
vt 0.144502 0.000000
vt 0.000000 0.637249
vt 0.740041 0.077995
vt 0.754492 0.000000
vt 0.870093 0.000000
vt 0.884543 0.077995
vt 0.884543 0.715244
vt 1.000000 0.000000
vt 0.987128 0.637129
vt 0.884543 0.656281
vt 0.081743 1.000000
vt 0.000000 0.921531
vt 0.000000 0.810559
vt 1.000000 0.715379
vt 0.917932 0.730700
vt 0.130052 0.715244
vt 0.014450 0.715244
vt 0.211795 0.732090
vt 0.376732 0.715244
vt 0.261131 0.715244
vt 0.458475 0.732090
vt 0.609990 0.016846
vt 0.725591 0.016846
vt 0.528247 0.000000
vt 0.493361 0.711033
vt 0.493361 0.021058
vt 0.246680 0.021058
vt 0.000000 0.000000
vt 0.740041 0.715244
vt 0.897415 0.019152
vt 0.197344 0.732090
vt 0.197344 1.000000
vt 0.279087 0.921531
vt 0.279087 0.810559
vt 0.081743 0.732090
vn 0.382700 0.000000 -0.923900
vn 0.923900 0.000000 -0.382700
vn 0.923900 0.000000 0.382700
vn 0.382700 0.000000 0.923900
vn -0.382700 0.000000 0.923900
vn -0.923900 0.000000 0.382700
vn -0.347400 0.419400 -0.838700
vn -0.382700 0.000000 -0.923900
vn -0.923900 0.000000 -0.382700
vn 0.000000 1.000000 0.000000
vn -0.838700 0.419400 -0.347400
vn -0.838700 0.419400 0.347400
vn -0.347400 0.419400 0.838700
vn 0.347400 0.419400 0.838700
vn 0.838700 0.419400 0.347400
vn 0.838700 0.419400 -0.347400
vn 0.347400 0.419400 -0.838700
s off
f 2/1/1 4/2/1 3/3/1
f 4/2/2 6/4/2 5/5/2
f 6/6/3 8/7/3 7/8/3
f 8/7/4 10/9/4 9/10/4
f 10/11/5 12/12/5 11/13/5
f 11/13/6 12/12/6 14/14/6
f 16/15/7 24/16/7 17/17/7
f 16/15/8 2/18/8 1/19/8
f 13/20/9 14/21/9 16/22/9
f 18/23/10 17/24/10 24/25/10
f 14/21/11 23/26/11 24/27/11
f 12/12/12 22/28/12 23/29/12
f 10/11/13 21/30/13 22/28/13
f 8/7/14 20/31/14 21/32/14
f 8/7/15 6/6/15 19/33/15
f 4/2/16 18/34/16 19/35/16
f 2/1/17 17/36/17 18/34/17
f 1/37/1 2/1/1 3/3/1
f 3/3/2 4/2/2 5/5/2
f 5/38/3 6/6/3 7/8/3
f 7/8/4 8/7/4 9/10/4
f 9/39/5 10/11/5 11/13/5
f 13/40/6 11/13/6 14/14/6
f 2/18/7 16/15/7 17/17/7
f 15/41/8 16/15/8 1/19/8
f 15/42/9 13/20/9 16/22/9
f 18/23/10 22/43/10 19/44/10
f 20/45/10 19/44/10 21/46/10
f 22/43/10 18/23/10 23/47/10
f 16/22/11 14/21/11 24/27/11
f 19/44/10 22/43/10 21/46/10
f 14/14/12 12/12/12 23/29/12
f 18/23/10 24/25/10 23/47/10
f 12/12/13 10/11/13 22/28/13
f 10/9/14 8/7/14 21/32/14
f 20/31/15 8/7/15 19/33/15
f 6/4/16 4/2/16 19/35/16
f 4/2/17 2/1/17 18/34/17
