# Blender v2.72 (sub 0) OBJ File: 'tree_mars.blend'
# www.blender.org
o Cylinder
v 0.000000 0.000000 -0.150000
v 0.000000 0.400000 -0.150000
v 0.029264 0.000000 -0.147118
v 0.029264 0.400000 -0.147118
v 0.057403 0.000000 -0.138582
v 0.057403 0.400000 -0.138582
v 0.083336 0.000000 -0.124720
v 0.083336 0.400000 -0.124720
v 0.106066 0.000000 -0.106066
v 0.106066 0.400000 -0.106066
v 0.124720 0.000000 -0.083336
v 0.124720 0.400000 -0.083336
v 0.138582 0.000000 -0.057403
v 0.138582 0.400000 -0.057403
v 0.147118 0.000000 -0.029264
v 0.147118 0.400000 -0.029264
v 0.150000 0.000000 -0.000000
v 0.150000 0.400000 -0.000000
v 0.147118 0.000000 0.029264
v 0.147118 0.400000 0.029264
v 0.138582 0.000000 0.057402
v 0.138582 0.400000 0.057402
v 0.124720 0.000000 0.083336
v 0.124720 0.400000 0.083336
v 0.106066 0.000000 0.106066
v 0.106066 0.400000 0.106066
v 0.083336 0.000000 0.124720
v 0.083336 0.400000 0.124720
v 0.057402 0.000000 0.138582
v 0.057402 0.400000 0.138582
v 0.029264 0.000000 0.147118
v 0.029264 0.400000 0.147118
v -0.000000 0.000000 0.150000
v -0.000000 0.400000 0.150000
v -0.029264 0.000000 0.147118
v -0.029264 0.400000 0.147118
v -0.057403 0.000000 0.138582
v -0.057403 0.400000 0.138582
v -0.083336 0.000000 0.124720
v -0.083336 0.400000 0.124720
v -0.106066 0.000000 0.106066
v -0.106066 0.400000 0.106066
v -0.124721 0.000000 0.083335
v -0.124721 0.400000 0.083335
v -0.138582 0.000000 0.057402
v -0.138582 0.400000 0.057402
v -0.147118 0.000000 0.029263
v -0.147118 0.400000 0.029263
v -0.150000 0.000000 -0.000000
v -0.150000 0.400000 -0.000000
v -0.147118 0.000000 -0.029264
v -0.147118 0.400000 -0.029264
v -0.138582 0.000000 -0.057403
v -0.138582 0.400000 -0.057403
v -0.124720 0.000000 -0.083336
v -0.124720 0.400000 -0.083336
v -0.106066 0.000000 -0.106066
v -0.106066 0.400000 -0.106066
v -0.083335 0.000000 -0.124721
v -0.083335 0.400000 -0.124721
v -0.057402 0.000000 -0.138582
v -0.057402 0.400000 -0.138582
v -0.029263 0.000000 -0.147118
v -0.029263 0.400000 -0.147118
v 0.000000 0.400000 -0.150000
v 0.029264 0.400000 -0.147118
v 0.057403 0.400000 -0.138582
v 0.083336 0.400000 -0.124720
v 0.106066 0.400000 -0.106066
v 0.124720 0.400000 -0.083336
v 0.138582 0.400000 -0.057403
v 0.147118 0.400000 -0.029264
v 0.150000 0.400000 -0.000000
v 0.147118 0.400000 0.029264
v 0.138582 0.400000 0.057402
v 0.124720 0.400000 0.083336
v 0.106066 0.400000 0.106066
v 0.083336 0.400000 0.124720
v 0.057402 0.400000 0.138582
v 0.029264 0.400000 0.147118
v -0.000000 0.400000 0.150000
v -0.029264 0.400000 0.147118
v -0.057403 0.400000 0.138582
v -0.083336 0.400000 0.124720
v -0.106066 0.400000 0.106066
v -0.124721 0.400000 0.083335
v -0.138582 0.400000 0.057402
v -0.147118 0.400000 0.029263
v -0.150000 0.400000 -0.000000
v -0.147118 0.400000 -0.029264
v -0.138582 0.400000 -0.057403
v -0.124720 0.400000 -0.083336
v -0.106066 0.400000 -0.106066
v -0.083335 0.400000 -0.124721
v -0.057402 0.400000 -0.138582
v -0.029263 0.400000 -0.147118
v -0.000000 0.400000 -0.600000
v 0.117054 0.400000 -0.588471
v 0.229610 0.400000 -0.554328
v 0.333342 0.400000 -0.498882
v 0.424264 0.400000 -0.424264
v 0.498882 0.400000 -0.333342
v 0.554328 0.400000 -0.229610
v 0.588471 0.400000 -0.117054
v 0.600000 0.400000 0.000000
v 0.588471 0.400000 0.117054
v 0.554328 0.400000 0.229610
v 0.498882 0.400000 0.333342
v 0.424264 0.400000 0.424264
v 0.333342 0.400000 0.498882
v 0.229610 0.400000 0.554328
v 0.117054 0.400000 0.588471
v -0.000000 0.400000 0.600000
v -0.117054 0.400000 0.588471
v -0.229610 0.400000 0.554328
v -0.333342 0.400000 0.498882
v -0.424264 0.400000 0.424264
v -0.498882 0.400000 0.333342
v -0.554328 0.400000 0.229610
v -0.588471 0.400000 0.117054
v -0.600000 0.400000 -0.000000
v -0.588471 0.400000 -0.117055
v -0.554328 0.400000 -0.229611
v -0.498881 0.400000 -0.333343
v -0.424264 0.400000 -0.424264
v -0.333342 0.400000 -0.498882
v -0.229609 0.400000 -0.554328
v -0.117053 0.400000 -0.588471
v 0.000000 2.200000 0.000000
v 0.000000 1.711627 0.000000
v -0.005683 1.711627 0.014870
v 0.356120 1.988018 0.277732
v -0.143877 1.988018 0.440194
v -0.452896 1.988020 0.014870
v -0.143877 1.988018 -0.410455
v 0.356120 1.988018 -0.247993
v 0.132511 2.435237 0.440194
v -0.367487 2.435237 0.277732
v -0.367487 2.435237 -0.247993
v 0.132511 2.435237 -0.410455
v 0.441530 2.435235 0.014870
v -0.005683 2.711627 0.014870
v -0.086911 1.786300 0.264867
v 0.206978 1.786300 0.169375
v 0.125751 1.948759 0.419375
v 0.419641 1.948760 0.014870
v 0.206978 1.786300 -0.139636
v -0.268548 1.786302 0.014870
v -0.349778 1.948759 0.264868
v -0.086911 1.786300 -0.235128
v -0.349778 1.948759 -0.235129
v 0.125751 1.948759 -0.389636
v 0.469846 2.211627 0.169376
v 0.469846 2.211627 -0.139637
v -0.005683 2.211627 0.514870
v 0.288209 2.211627 0.419378
v -0.481212 2.211627 0.169376
v -0.299576 2.211627 0.419378
v -0.299576 2.211627 -0.389639
v -0.481212 2.211627 -0.139637
v 0.288209 2.211627 -0.389639
v -0.005683 2.211627 -0.485130
v 0.338411 2.474496 0.264868
v -0.137118 2.474496 0.419375
v -0.431007 2.474495 0.014870
v -0.137118 2.474496 -0.389636
v 0.338411 2.474496 -0.235129
v 0.075544 2.636955 0.264867
v 0.257182 2.636953 0.014870
v -0.218345 2.636955 0.169375
v -0.218345 2.636955 -0.139636
v 0.075544 2.636955 -0.235128
vt 0.842063 0.274448
vt 0.831522 0.288656
vt 0.834519 0.167623
vt 0.821704 0.273944
vt 0.840125 0.166697
vt 0.813860 0.259092
vt 0.845649 0.163793
vt 0.807854 0.244252
vt 0.850956 0.159063
vt 0.803553 0.229576
vt 0.800821 0.215213
vt 0.860376 0.144730
vt 0.799523 0.201316
vt 0.864219 0.135428
vt 0.799523 0.188036
vt 0.867304 0.124906
vt 0.800687 0.175524
vt 0.869496 0.113313
vt 0.802879 0.163930
vt 0.870659 0.100801
vt 0.805964 0.153407
vt 0.870659 0.087521
vt 0.809807 0.144106
vt 0.869361 0.073624
vt 0.814274 0.136177
vt 0.819228 0.129772
vt 0.862327 0.044586
vt 0.824535 0.125042
vt 0.856322 0.029746
vt 0.830060 0.122138
vt 0.835667 0.121212
vt 0.838660 0.000183
vt 0.841221 0.122414
vt 0.828126 0.014392
vt 0.846595 0.125588
vt 0.851662 0.130574
vt 0.812826 0.043362
vt 0.856294 0.137216
vt 0.860363 0.145356
vt 0.804366 0.072017
vt 0.863742 0.154836
vt 0.802382 0.085832
vt 0.866303 0.165499
vt 0.801726 0.099096
vt 0.867919 0.177187
vt 0.802269 0.111650
vt 0.868463 0.189741
vt 0.803885 0.123337
vt 0.867807 0.203005
vt 0.806446 0.134000
vt 0.865823 0.216821
vt 0.809825 0.143480
vt 0.862384 0.231031
vt 0.857363 0.245477
vt 0.818525 0.158261
vt 0.823591 0.163248
vt 0.850631 0.260002
vt 0.585139 0.129690
vt 0.576647 0.626062
vt 0.562839 0.132727
vt 0.317745 0.004209
vt 0.328346 0.000183
vt 0.400396 0.115078
vt 0.831172 0.302948
vt 0.539854 0.136043
vt 0.155953 0.007612
vt 0.155342 0.115376
vt 0.132276 0.116396
vt 0.626296 0.023410
vt 0.644017 0.021132
vt 0.672935 0.119455
vt 0.464814 0.008869
vt 0.479653 0.015375
vt 0.463210 0.147146
vt 0.195276 0.002588
vt 0.200971 0.114340
vt 0.178132 0.114642
vt 0.676600 0.014770
vt 0.719524 0.113697
vt 0.695788 0.116802
vt 0.215463 0.005579
vt 0.223515 0.114552
vt 0.496215 0.020090
vt 0.513930 0.023338
vt 0.515858 0.139614
vt 0.702876 0.005759
vt 0.770862 0.104651
vt 0.744439 0.109800
vt 0.235130 0.007659
vt 0.254108 0.008869
vt 0.268969 0.116024
vt 0.551231 0.026451
vt 0.071164 0.000183
vt 0.079201 0.004052
vt 0.030228 0.118626
vt 0.289084 0.008593
vt 0.317008 0.117699
vt 0.292500 0.116950
vt 0.589218 0.026214
vt 0.607044 0.126916
vt 0.104441 0.008413
vt 0.083969 0.118493
vt 0.057990 0.119006
vt 0.370502 0.117267
vt 0.342868 0.117948
vt 0.120247 0.009060
vt 0.137529 0.008780
vt 0.650695 0.121911
vt 0.628813 0.124353
vt 0.433538 0.150729
vt 0.400762 0.153756
vt 0.175267 0.005562
vt 0.660887 0.018262
vt 0.490463 0.143363
vt 0.690767 0.010615
vt 0.246079 0.115162
vt 0.532376 0.025388
vt 0.712258 0.000183
vt 0.799153 0.097635
vt 0.272185 0.009197
vt 0.570247 0.026687
vt 0.090559 0.006770
vt 0.304436 0.006968
vt 0.108602 0.117517
vt 0.607962 0.025108
vt 0.203816 0.632666
vt 0.000183 0.116776
vt 0.057240 0.633032
vt 0.095925 0.698614
vt 0.014655 0.710010
vt 0.126501 0.749917
vt 0.166378 0.709766
vt 0.575620 0.628889
vt 0.673124 0.651798
vt 0.606686 0.705923
vt 0.539103 0.703870
vt 0.475549 0.645504
vt 0.174152 0.772615
vt 0.008783 0.794242
vt 0.072071 0.766133
vt 0.068525 0.833735
vt 0.619387 0.763554
vt 0.672800 0.740388
vt 0.651310 0.807516
vt 0.522821 0.760528
vt 0.571198 0.758114
vt 0.544315 0.803834
vt 0.401593 0.703884
vt 0.470636 0.734714
vt 0.409814 0.796497
vt 0.123981 0.802457
vt 0.000183 0.876819
vt 0.594942 0.805825
vt 0.488852 0.802109
vt 0.220338 0.667625
vt 0.295811 0.697510
vt 0.227422 0.738156
vt 0.124156 0.857615
vt 0.176464 0.832971
vt 0.168987 0.904049
vt 0.676624 0.863137
vt 0.742634 0.907329
vt 0.641493 0.938022
vt 0.567834 0.844887
vt 0.617385 0.859172
vt 0.563459 0.902302
vt 0.462254 0.854537
vt 0.519068 0.853303
vt 0.492774 0.916806
vt 0.223359 0.799708
vt 0.292119 0.786215
vt 0.246638 0.868583
vt 0.144565 0.633032
vt 0.742634 0.713203
vt 0.730299 0.803647
vt 0.082824 0.914864
vt 0.400762 0.903970
vt 0.228491 0.958159
vt 0.144615 0.988495
vt 0.547977 0.985597
vt 0.448051 0.999817
vt 0.828965 0.166421
vt 0.855910 0.152659
vt 0.866628 0.059262
vt 0.848478 0.014895
vt 0.819558 0.028837
vt 0.807805 0.057807
vt 0.813894 0.151619
vt 0.452462 0.000183
vn 0.098000 0.000000 -0.995200
vn 0.290300 0.000000 -0.956900
vn 0.471400 0.000000 -0.881900
vn 0.634400 0.000000 -0.773000
vn 0.773000 0.000000 -0.634400
vn 0.881900 0.000000 -0.471400
vn 0.956900 0.000000 -0.290300
vn 0.995200 0.000000 -0.098000
vn 0.995200 0.000000 0.098000
vn 0.956900 0.000000 0.290300
vn 0.881900 0.000000 0.471400
vn 0.773000 0.000000 0.634400
vn 0.634400 0.000000 0.773000
vn 0.471400 0.000000 0.881900
vn 0.290300 0.000000 0.956900
vn 0.098000 0.000000 0.995200
vn -0.098000 0.000000 0.995200
vn -0.290300 0.000000 0.956900
vn -0.471400 0.000000 0.881900
vn -0.634400 0.000000 0.773000
vn -0.773000 0.000000 0.634400
vn -0.881900 0.000000 0.471400
vn -0.956900 0.000000 0.290300
vn -0.995200 0.000000 0.098000
vn -0.995200 0.000000 -0.098000
vn -0.956900 0.000000 -0.290300
vn -0.881900 0.000000 -0.471400
vn -0.773000 0.000000 -0.634400
vn -0.634400 0.000000 -0.773000
vn -0.471400 0.000000 -0.881900
vn 0.000000 0.000000 1.000000
vn -0.098000 0.000000 -0.995200
vn -0.290300 0.000000 -0.956900
vn -0.275500 0.314900 0.908300
vn -0.000000 -1.000000 0.000000
vn -0.447400 0.314900 0.837100
vn 0.447400 0.314900 0.837100
vn 0.275500 0.314900 0.908300
vn 0.093000 0.314900 0.944600
vn -0.093000 0.314900 0.944600
vn -0.602100 0.314900 0.733700
vn -0.733700 0.314900 0.602100
vn -0.837100 0.314900 0.447400
vn -0.908300 0.314900 0.275500
vn -0.944600 0.314900 0.093000
vn -0.944600 0.314900 -0.093000
vn -0.908300 0.314900 -0.275500
vn -0.837100 0.314900 -0.447400
vn -0.733700 0.314900 -0.602100
vn -0.602100 0.314900 -0.733700
vn -0.447400 0.314900 -0.837100
vn -0.275500 0.314900 -0.908300
vn -0.093000 0.314900 -0.944600
vn 0.093000 0.314900 -0.944600
vn 0.275500 0.314900 -0.908300
vn 0.447400 0.314900 -0.837100
vn 0.602100 0.314900 -0.733700
vn 0.733700 0.314900 -0.602100
vn 0.837100 0.314900 -0.447400
vn 0.908300 0.314900 -0.275500
vn 0.944600 0.314900 -0.093000
vn 0.944600 0.314900 0.093000
vn 0.908300 0.314900 0.275500
vn 0.837100 0.314900 0.447400
vn 0.733700 0.314900 0.602100
vn 0.602100 0.314900 0.733700
vn 0.102400 -0.943500 0.315100
vn 0.700200 -0.661700 0.268000
vn -0.268000 -0.943500 0.194700
vn -0.268000 -0.943500 -0.194700
vn 0.102400 -0.943500 -0.315100
vn 0.905000 -0.330400 0.268000
vn 0.024700 -0.330400 0.943500
vn -0.889700 -0.330400 0.315100
vn -0.574600 -0.330400 -0.748800
vn 0.534600 -0.330400 -0.777900
vn 0.802600 -0.125600 0.583100
vn -0.306600 -0.125600 0.943500
vn -0.992100 -0.125600 0.000000
vn -0.306600 -0.125600 -0.943500
vn 0.802600 -0.125600 -0.583100
vn 0.408900 0.661700 0.628400
vn -0.471300 0.661700 0.583100
vn -0.700200 0.661700 -0.268000
vn 0.038500 0.661700 -0.748800
vn 0.724000 0.661700 -0.194700
vn -0.038500 -0.661700 0.748800
vn 0.187600 -0.794700 0.577300
vn 0.471300 -0.661700 0.583100
vn 0.700200 -0.661700 -0.268000
vn 0.607100 -0.794700 0.000000
vn 0.331300 -0.943500 0.000000
vn -0.724000 -0.661700 0.194700
vn -0.491100 -0.794700 0.356800
vn -0.408900 -0.661700 0.628400
vn -0.408900 -0.661700 -0.628400
vn -0.491100 -0.794700 -0.356800
vn -0.724000 -0.661700 -0.194700
vn 0.471300 -0.661700 -0.583100
vn 0.187600 -0.794700 -0.577300
vn -0.038500 -0.661700 -0.748800
vn 0.992100 0.125600 0.000000
vn 0.982200 -0.187600 0.000000
vn 0.905000 -0.330400 -0.268000
vn 0.306600 0.125600 0.943500
vn 0.303500 -0.187600 0.934200
vn 0.534600 -0.330400 0.777900
vn -0.802600 0.125600 0.583100
vn -0.794700 -0.187600 0.577300
vn -0.574600 -0.330400 0.748800
vn -0.802600 0.125600 -0.583100
vn -0.794700 -0.187600 -0.577300
vn -0.889700 -0.330400 -0.315100
vn 0.306600 0.125600 -0.943500
vn 0.303500 -0.187600 -0.934200
vn 0.024700 -0.330400 -0.943500
vn 0.574600 0.330400 0.748800
vn 0.794700 0.187600 0.577300
vn 0.889700 0.330400 0.315100
vn -0.534600 0.330400 0.777900
vn -0.303500 0.187600 0.934200
vn -0.024700 0.330400 0.943500
vn -0.905000 0.330400 -0.268000
vn -0.982200 0.187600 0.000000
vn -0.905000 0.330400 0.268000
vn -0.024700 0.330400 -0.943500
vn -0.303500 0.187600 -0.934200
vn -0.534600 0.330400 -0.777900
vn 0.889700 0.330400 -0.315100
vn 0.794700 0.187600 -0.577300
vn 0.574600 0.330400 -0.748800
vn 0.268000 0.943500 0.194700
vn 0.491100 0.794700 0.356800
vn 0.724000 0.661700 0.194700
vn -0.102400 0.943500 0.315100
vn -0.187600 0.794700 0.577300
vn 0.038500 0.661700 0.748800
vn -0.331300 0.943500 0.000000
vn -0.607100 0.794700 0.000000
vn -0.700200 0.661700 0.268000
vn -0.102400 0.943500 -0.315100
vn -0.187600 0.794700 -0.577300
vn -0.471300 0.661700 -0.583100
vn 0.268000 0.943500 -0.194700
vn 0.491100 0.794700 -0.356800
vn 0.408900 0.661700 -0.628400
s off
f 2/1/1 4/2/1 3/3/1
f 4/2/2 6/4/2 5/5/2
f 6/4/3 8/6/3 7/7/3
f 8/6/4 10/8/4 9/9/4
f 9/9/5 10/8/5 12/10/5
f 12/10/6 14/11/6 13/12/6
f 14/11/7 16/13/7 15/14/7
f 16/13/8 18/15/8 17/16/8
f 18/15/9 20/17/9 19/18/9
f 20/17/10 22/19/10 21/20/10
f 21/20/11 22/19/11 24/21/11
f 23/22/12 24/21/12 26/23/12
f 25/24/13 26/23/13 28/25/13
f 28/25/14 30/26/14 29/27/14
f 30/26/15 32/28/15 31/29/15
f 31/29/16 32/28/16 34/30/16
f 34/30/17 36/31/17 35/32/17
f 36/31/18 38/33/18 37/34/18
f 37/34/19 38/33/19 40/35/19
f 40/35/20 42/36/20 41/37/20
f 41/37/21 42/36/21 44/38/21
f 44/38/22 46/39/22 45/40/22
f 46/39/23 48/41/23 47/42/23
f 48/41/24 50/43/24 49/44/24
f 50/43/25 52/45/25 51/46/25
f 52/45/26 54/47/26 53/48/26
f 54/47/27 56/49/27 55/50/27
f 55/50/28 56/49/28 58/51/28
f 57/52/29 58/51/29 60/53/29
f 60/53/30 62/54/30 61/55/30
f 44/38/31 86/38/31 87/39/31
f 63/56/32 64/57/32 2/1/32
f 61/55/33 62/54/33 64/57/33
f 114/58/34 129/59/34 115/60/34
f 90/61/35 89/62/35 121/63/35
f 22/19/31 75/19/31 76/21/31
f 50/43/31 89/43/31 90/45/31
f 6/4/31 67/4/31 68/6/31
f 28/25/31 78/25/31 79/26/31
f 56/49/31 92/49/31 93/51/31
f 34/30/31 81/30/31 82/31/31
f 12/10/31 70/10/31 71/11/31
f 62/54/31 95/54/31 96/57/31
f 40/35/31 84/35/31 85/36/31
f 18/15/31 73/15/31 74/17/31
f 46/39/31 87/39/31 88/41/31
f 24/21/31 76/21/31 77/23/31
f 52/45/31 90/45/31 91/47/31
f 8/6/31 68/6/31 69/8/31
f 30/26/31 79/26/31 80/28/31
f 58/51/31 93/51/31 94/53/31
f 36/31/31 82/31/31 83/33/31
f 14/11/31 71/11/31 72/13/31
f 64/57/31 96/57/31 65/1/31
f 42/36/31 85/36/31 86/38/31
f 20/17/31 74/17/31 75/19/31
f 48/41/31 88/41/31 89/43/31
f 4/2/31 66/64/31 67/4/31
f 26/23/31 77/23/31 78/25/31
f 54/47/31 91/47/31 92/49/31
f 10/8/31 69/8/31 70/10/31
f 32/28/31 80/28/31 81/30/31
f 60/53/31 94/53/31 95/54/31
f 38/33/31 83/33/31 84/35/31
f 2/1/31 65/1/31 66/64/31
f 16/13/31 72/13/31 73/15/31
f 115/60/36 129/59/36 116/65/36
f 67/66/35 99/67/35 100/68/35
f 79/69/35 78/70/35 110/71/35
f 88/72/35 87/73/35 119/74/35
f 65/75/35 97/76/35 98/77/35
f 76/78/35 108/79/35 109/80/35
f 96/81/35 128/82/35 97/76/35
f 86/83/35 85/84/35 117/85/35
f 74/86/35 106/87/35 107/88/35
f 95/89/35 94/90/35 126/91/35
f 83/92/35 115/60/35 116/65/35
f 73/93/35 72/94/35 104/95/35
f 92/96/35 124/97/35 125/98/35
f 81/99/35 113/100/35 114/58/35
f 70/101/35 102/102/35 103/103/35
f 90/61/35 122/104/35 123/105/35
f 69/106/35 68/107/35 100/68/35
f 79/69/35 111/108/35 112/109/35
f 88/72/35 120/110/35 121/111/35
f 66/112/35 98/77/35 99/67/35
f 77/113/35 109/80/35 110/71/35
f 87/73/35 86/83/35 118/114/35
f 75/115/35 107/88/35 108/79/35
f 95/89/35 127/116/35 128/82/35
f 85/84/35 84/117/35 116/65/35
f 73/118/35 105/119/35 106/87/35
f 93/120/35 125/98/35 126/91/35
f 82/121/35 114/58/35 115/60/35
f 71/122/35 103/103/35 104/95/35
f 91/123/35 123/105/35 124/97/35
f 70/101/35 69/106/35 101/124/35
f 80/125/35 112/109/35 113/100/35
f 111/108/37 110/71/37 129/59/37
f 112/109/38 111/108/38 129/59/38
f 113/100/39 112/109/39 129/59/39
f 114/58/40 113/100/40 129/59/40
f 116/65/41 129/59/41 117/85/41
f 117/85/42 129/59/42 118/114/42
f 118/114/43 129/59/43 119/74/43
f 119/74/44 129/59/44 120/110/44
f 120/110/45 129/59/45 121/111/45
f 121/63/46 129/126/46 122/104/46
f 122/104/47 129/126/47 123/105/47
f 123/105/48 129/126/48 124/97/48
f 124/97/49 129/126/49 125/98/49
f 125/98/50 129/126/50 126/91/50
f 126/91/51 129/126/51 127/116/51
f 127/116/52 129/126/52 128/82/52
f 128/82/53 129/126/53 97/76/53
f 97/76/54 129/126/54 98/77/54
f 98/77/55 129/126/55 99/67/55
f 99/67/56 129/126/56 100/68/56
f 100/68/57 129/126/57 101/124/57
f 101/124/58 129/126/58 102/102/58
f 102/102/59 129/126/59 103/103/59
f 103/103/60 129/126/60 104/95/60
f 104/95/61 129/126/61 105/127/61
f 105/119/62 129/59/62 106/87/62
f 106/87/63 129/59/63 107/88/63
f 107/88/64 129/59/64 108/79/64
f 108/79/65 129/59/65 109/80/65
f 109/80/66 129/59/66 110/71/66
f 131/128/67 144/129/67 143/130/67
f 132/131/68 144/129/68 146/132/68
f 131/133/69 143/134/69 148/135/69
f 131/133/70 148/135/70 150/136/70
f 131/133/71 150/136/71 147/137/71
f 132/131/72 146/132/72 153/138/72
f 133/139/73 145/140/73 155/141/73
f 134/142/74 149/143/74 157/144/74
f 135/145/75 151/146/75 159/147/75
f 136/148/76 152/149/76 161/150/76
f 132/131/77 153/138/77 156/151/77
f 133/139/78 155/141/78 158/152/78
f 134/142/79 157/144/79 160/153/79
f 135/145/80 159/147/80 162/154/80
f 136/155/81 161/156/81 154/157/81
f 137/158/82 163/159/82 168/160/82
f 138/161/83 164/162/83 170/163/83
f 139/164/84 165/165/84 171/166/84
f 140/167/85 166/168/85 172/169/85
f 141/170/86 167/171/86 169/172/86
f 143/130/87 145/140/87 133/139/87
f 143/130/88 144/129/88 145/140/88
f 144/129/89 132/131/89 145/140/89
f 146/132/90 147/173/90 136/155/90
f 146/132/91 144/129/91 147/173/91
f 144/129/92 131/128/92 147/173/92
f 148/135/93 149/143/93 134/142/93
f 148/135/94 143/134/94 149/143/94
f 143/134/95 133/174/95 149/143/95
f 150/136/96 151/146/96 135/145/96
f 150/136/97 148/135/97 151/146/97
f 148/135/98 134/142/98 151/146/98
f 147/137/99 152/149/99 136/148/99
f 147/137/100 150/136/100 152/149/100
f 150/136/101 135/145/101 152/149/101
f 153/138/102 154/157/102 141/170/102
f 153/138/103 146/132/103 154/157/103
f 146/132/104 136/155/104 154/157/104
f 155/141/105 156/151/105 137/158/105
f 155/141/106 145/140/106 156/151/106
f 145/140/107 132/131/107 156/151/107
f 157/144/108 158/175/108 138/161/108
f 157/144/109 149/143/109 158/175/109
f 149/143/110 133/174/110 158/175/110
f 159/147/111 160/153/111 139/164/111
f 159/147/112 151/146/112 160/153/112
f 151/146/113 134/142/113 160/153/113
f 161/150/114 162/154/114 140/167/114
f 161/150/115 152/149/115 162/154/115
f 152/149/116 135/145/116 162/154/116
f 156/151/117 163/159/117 137/158/117
f 156/151/118 153/138/118 163/159/118
f 153/138/119 141/170/119 163/159/119
f 158/175/120 164/162/120 138/161/120
f 158/152/121 155/141/121 164/176/121
f 155/141/122 137/158/122 164/176/122
f 160/153/123 165/165/123 139/164/123
f 160/153/124 157/144/124 165/165/124
f 157/144/125 138/161/125 165/165/125
f 162/154/126 166/168/126 140/167/126
f 162/154/127 159/147/127 166/168/127
f 159/147/128 139/164/128 166/168/128
f 154/157/129 167/171/129 141/170/129
f 154/157/130 161/156/130 167/171/130
f 161/150/131 140/167/131 167/177/131
f 168/160/132 169/172/132 142/178/132
f 168/160/133 163/159/133 169/172/133
f 163/159/134 141/170/134 169/172/134
f 170/179/135 168/160/135 142/178/135
f 170/179/136 164/176/136 168/160/136
f 164/176/137 137/158/137 168/160/137
f 171/166/138 170/163/138 142/180/138
f 171/166/139 165/165/139 170/163/139
f 165/165/140 138/161/140 170/163/140
f 172/169/141 171/166/141 142/180/141
f 172/169/142 166/168/142 171/166/142
f 166/168/143 139/164/143 171/166/143
f 169/181/144 172/169/144 142/180/144
f 169/181/145 167/177/145 172/169/145
f 167/177/146 140/167/146 172/169/146
f 1/182/1 2/1/1 3/3/1
f 3/3/2 4/2/2 5/5/2
f 5/5/3 6/4/3 7/7/3
f 7/7/4 8/6/4 9/9/4
f 11/183/5 9/9/5 12/10/5
f 11/183/6 12/10/6 13/12/6
f 13/12/7 14/11/7 15/14/7
f 15/14/8 16/13/8 17/16/8
f 17/16/9 18/15/9 19/18/9
f 19/18/10 20/17/10 21/20/10
f 23/22/11 21/20/11 24/21/11
f 25/24/12 23/22/12 26/23/12
f 27/184/13 25/24/13 28/25/13
f 27/184/14 28/25/14 29/27/14
f 29/27/15 30/26/15 31/29/15
f 33/185/16 31/29/16 34/30/16
f 33/185/17 34/30/17 35/32/17
f 35/32/18 36/31/18 37/34/18
f 39/186/19 37/34/19 40/35/19
f 39/186/20 40/35/20 41/37/20
f 43/187/21 41/37/21 44/38/21
f 43/187/22 44/38/22 45/40/22
f 45/40/23 46/39/23 47/42/23
f 47/42/24 48/41/24 49/44/24
f 49/44/25 50/43/25 51/46/25
f 51/46/26 52/45/26 53/48/26
f 53/48/27 54/47/27 55/50/27
f 57/52/28 55/50/28 58/51/28
f 59/188/29 57/52/29 60/53/29
f 59/188/30 60/53/30 61/55/30
f 46/39/31 44/38/31 87/39/31
f 1/182/32 63/56/32 2/1/32
f 63/56/33 61/55/33 64/57/33
f 122/104/35 90/61/35 121/63/35
f 24/21/31 22/19/31 76/21/31
f 52/45/31 50/43/31 90/45/31
f 8/6/31 6/4/31 68/6/31
f 30/26/31 28/25/31 79/26/31
f 58/51/31 56/49/31 93/51/31
f 36/31/31 34/30/31 82/31/31
f 14/11/31 12/10/31 71/11/31
f 64/57/31 62/54/31 96/57/31
f 42/36/31 40/35/31 85/36/31
f 20/17/31 18/15/31 74/17/31
f 48/41/31 46/39/31 88/41/31
f 26/23/31 24/21/31 77/23/31
f 54/47/31 52/45/31 91/47/31
f 10/8/31 8/6/31 69/8/31
f 32/28/31 30/26/31 80/28/31
f 60/53/31 58/51/31 94/53/31
f 38/33/31 36/31/31 83/33/31
f 16/13/31 14/11/31 72/13/31
f 2/1/31 64/57/31 65/1/31
f 44/38/31 42/36/31 86/38/31
f 22/19/31 20/17/31 75/19/31
f 50/43/31 48/41/31 89/43/31
f 6/4/31 4/2/31 67/4/31
f 28/25/31 26/23/31 78/25/31
f 56/49/31 54/47/31 92/49/31
f 12/10/31 10/8/31 70/10/31
f 34/30/31 32/28/31 81/30/31
f 62/54/31 60/53/31 95/54/31
f 40/35/31 38/33/31 84/35/31
f 4/2/31 2/1/31 66/64/31
f 18/15/31 16/13/31 73/15/31
f 68/107/35 67/66/35 100/68/35
f 111/108/35 79/69/35 110/71/35
f 120/110/35 88/72/35 119/74/35
f 66/112/35 65/75/35 98/77/35
f 77/113/35 76/78/35 109/80/35
f 65/75/35 96/81/35 97/76/35
f 118/114/35 86/83/35 117/85/35
f 75/115/35 74/86/35 107/88/35
f 127/116/35 95/89/35 126/91/35
f 84/117/35 83/92/35 116/65/35
f 105/127/35 73/93/35 104/95/35
f 93/120/35 92/96/35 125/98/35
f 82/121/35 81/99/35 114/58/35
f 71/122/35 70/101/35 103/103/35
f 91/123/35 90/61/35 123/105/35
f 101/124/35 69/106/35 100/68/35
f 80/125/35 79/69/35 112/109/35
f 89/189/35 88/72/35 121/111/35
f 67/66/35 66/112/35 99/67/35
f 78/70/35 77/113/35 110/71/35
f 119/74/35 87/73/35 118/114/35
f 76/78/35 75/115/35 108/79/35
f 96/81/35 95/89/35 128/82/35
f 117/85/35 85/84/35 116/65/35
f 74/86/35 73/118/35 106/87/35
f 94/90/35 93/120/35 126/91/35
f 83/92/35 82/121/35 115/60/35
f 72/94/35 71/122/35 104/95/35
f 92/96/35 91/123/35 124/97/35
f 102/102/35 70/101/35 101/124/35
f 81/99/35 80/125/35 113/100/35
