# Blender v2.72 (sub 0) OBJ File: 'tree.blend'
# www.blender.org
o Cylinder
v 0.000000 0.000000 -0.150000
v 0.000000 0.400000 -0.150000
v 0.029264 0.000000 -0.147118
v 0.029264 0.400000 -0.147118
v 0.057403 0.000000 -0.138582
v 0.057403 0.400000 -0.138582
v 0.083336 0.000000 -0.124720
v 0.083336 0.400000 -0.124720
v 0.106066 0.000000 -0.106066
v 0.106066 0.400000 -0.106066
v 0.124720 0.000000 -0.083336
v 0.124720 0.400000 -0.083336
v 0.138582 0.000000 -0.057403
v 0.138582 0.400000 -0.057403
v 0.147118 0.000000 -0.029264
v 0.147118 0.400000 -0.029264
v 0.150000 0.000000 -0.000000
v 0.150000 0.400000 -0.000000
v 0.147118 0.000000 0.029264
v 0.147118 0.400000 0.029264
v 0.138582 0.000000 0.057402
v 0.138582 0.400000 0.057402
v 0.124720 0.000000 0.083336
v 0.124720 0.400000 0.083336
v 0.106066 0.000000 0.106066
v 0.106066 0.400000 0.106066
v 0.083336 0.000000 0.124720
v 0.083336 0.400000 0.124720
v 0.057402 0.000000 0.138582
v 0.057402 0.400000 0.138582
v 0.029264 0.000000 0.147118
v 0.029264 0.400000 0.147118
v -0.000000 0.000000 0.150000
v -0.000000 0.400000 0.150000
v -0.029264 0.000000 0.147118
v -0.029264 0.400000 0.147118
v -0.057403 0.000000 0.138582
v -0.057403 0.400000 0.138582
v -0.083336 0.000000 0.124720
v -0.083336 0.400000 0.124720
v -0.106066 0.000000 0.106066
v -0.106066 0.400000 0.106066
v -0.124721 0.000000 0.083335
v -0.124721 0.400000 0.083335
v -0.138582 0.000000 0.057402
v -0.138582 0.400000 0.057402
v -0.147118 0.000000 0.029263
v -0.147118 0.400000 0.029263
v -0.150000 0.000000 -0.000000
v -0.150000 0.400000 -0.000000
v -0.147118 0.000000 -0.029264
v -0.147118 0.400000 -0.029264
v -0.138582 0.000000 -0.057403
v -0.138582 0.400000 -0.057403
v -0.124720 0.000000 -0.083336
v -0.124720 0.400000 -0.083336
v -0.106066 0.000000 -0.106066
v -0.106066 0.400000 -0.106066
v -0.083335 0.000000 -0.124721
v -0.083335 0.400000 -0.124721
v -0.057402 0.000000 -0.138582
v -0.057402 0.400000 -0.138582
v -0.029263 0.000000 -0.147118
v -0.029263 0.400000 -0.147118
v 0.000000 0.400000 -0.150000
v 0.029264 0.400000 -0.147118
v 0.057403 0.400000 -0.138582
v 0.083336 0.400000 -0.124720
v 0.106066 0.400000 -0.106066
v 0.124720 0.400000 -0.083336
v 0.138582 0.400000 -0.057403
v 0.147118 0.400000 -0.029264
v 0.150000 0.400000 -0.000000
v 0.147118 0.400000 0.029264
v 0.138582 0.400000 0.057402
v 0.124720 0.400000 0.083336
v 0.106066 0.400000 0.106066
v 0.083336 0.400000 0.124720
v 0.057402 0.400000 0.138582
v 0.029264 0.400000 0.147118
v -0.000000 0.400000 0.150000
v -0.029264 0.400000 0.147118
v -0.057403 0.400000 0.138582
v -0.083336 0.400000 0.124720
v -0.106066 0.400000 0.106066
v -0.124721 0.400000 0.083335
v -0.138582 0.400000 0.057402
v -0.147118 0.400000 0.029263
v -0.150000 0.400000 -0.000000
v -0.147118 0.400000 -0.029264
v -0.138582 0.400000 -0.057403
v -0.124720 0.400000 -0.083336
v -0.106066 0.400000 -0.106066
v -0.083335 0.400000 -0.124721
v -0.057402 0.400000 -0.138582
v -0.029263 0.400000 -0.147118
v -0.000000 0.400000 -0.600000
v 0.117054 0.400000 -0.588471
v 0.229610 0.400000 -0.554328
v 0.333342 0.400000 -0.498882
v 0.424264 0.400000 -0.424264
v 0.498882 0.400000 -0.333342
v 0.554328 0.400000 -0.229610
v 0.588471 0.400000 -0.117054
v 0.600000 0.400000 0.000000
v 0.588471 0.400000 0.117054
v 0.554328 0.400000 0.229610
v 0.498882 0.400000 0.333342
v 0.424264 0.400000 0.424264
v 0.333342 0.400000 0.498882
v 0.229610 0.400000 0.554328
v 0.117054 0.400000 0.588471
v -0.000000 0.400000 0.600000
v -0.117054 0.400000 0.588471
v -0.229610 0.400000 0.554328
v -0.333342 0.400000 0.498882
v -0.424264 0.400000 0.424264
v -0.498882 0.400000 0.333342
v -0.554328 0.400000 0.229610
v -0.588471 0.400000 0.117054
v -0.600000 0.400000 -0.000000
v -0.588471 0.400000 -0.117055
v -0.554328 0.400000 -0.229611
v -0.498881 0.400000 -0.333343
v -0.424264 0.400000 -0.424264
v -0.333342 0.400000 -0.498882
v -0.229609 0.400000 -0.554328
v -0.117053 0.400000 -0.588471
v 0.000000 2.700000 0.000000
vt 0.193468 0.775926
vt 0.186137 0.776527
vt 0.186137 0.665637
vt 0.179903 0.777293
vt 0.179903 0.666402
vt 0.312735 0.665176
vt 0.320066 0.665777
vt 0.320066 0.776667
vt 0.328211 0.666191
vt 0.328211 0.777082
vt 0.336859 0.666402
vt 0.345675 0.666402
vt 0.345675 0.777293
vt 0.354323 0.666191
vt 0.354323 0.777082
vt 0.362468 0.665777
vt 0.362468 0.776667
vt 0.369799 0.665176
vt 0.369799 0.776066
vt 0.376034 0.664411
vt 0.376034 0.775301
vt 0.312735 0.665637
vt 0.312735 0.776527
vt 0.305404 0.775926
vt 0.305404 0.665036
vt 0.297258 0.775512
vt 0.297258 0.664622
vt 0.288611 0.775301
vt 0.279794 0.775301
vt 0.279794 0.664411
vt 0.271147 0.775512
vt 0.271147 0.664622
vt 0.263001 0.775926
vt 0.255670 0.776527
vt 0.255670 0.665637
vt 0.249436 0.777293
vt 0.249436 0.666402
vt 0.433098 0.665873
vt 0.433098 0.776351
vt 0.425767 0.775634
vt 0.417622 0.775140
vt 0.417622 0.664662
vt 0.408974 0.774889
vt 0.400158 0.774889
vt 0.400158 0.664411
vt 0.391510 0.775141
vt 0.391510 0.664662
vt 0.383365 0.775634
vt 0.383365 0.665156
vt 0.376034 0.776351
vt 0.376034 0.665873
vt 0.243201 0.776527
vt 0.243201 0.665637
vt 0.235871 0.775926
vt 0.235871 0.665036
vt 0.227725 0.775512
vt 0.227725 0.664622
vt 0.219078 0.775301
vt 0.210261 0.775301
vt 0.210261 0.664411
vt 0.000000 0.000000
vt 0.201613 0.664622
vt 0.201613 0.775512
vt 0.718861 0.000000
vt 0.718861 0.664725
vt 0.693639 0.000960
vt 0.171128 0.873348
vt 0.179903 0.874154
vt 0.179902 1.000000
vt 0.664280 0.003485
vt 0.138350 0.816152
vt 0.013694 0.767993
vt 0.030319 0.738984
vt 0.857212 0.845684
vt 0.861368 0.852937
vt 0.749180 0.922853
vt 0.889989 0.788489
vt 0.881552 0.790876
vt 0.829918 0.674609
vt 0.134927 0.832205
vt 0.000000 0.832205
vt 0.003457 0.799470
vt 0.873777 0.864510
vt 0.798815 0.969147
vt 0.771553 0.948280
vt 0.135791 0.840389
vt 0.003457 0.864940
vt 0.873777 0.794752
vt 0.866961 0.799969
vt 0.771553 0.710982
vt 0.889989 0.870774
vt 0.863667 0.994202
vt 0.829918 0.984653
vt 0.138350 0.848258
vt 0.142507 0.855511
vt 0.030319 0.925427
vt 0.857212 0.813578
vt 0.732555 0.765419
vt 0.749180 0.736409
vt 0.179903 0.790257
vt 0.171128 0.791063
vt 0.144805 0.667635
vt 0.154915 0.867084
vt 0.079954 0.971721
vt 0.052692 0.950854
vt 0.853788 0.829631
vt 0.718861 0.829631
vt 0.722318 0.796896
vt 0.154915 0.797326
vt 0.079954 0.692689
vt 0.111057 0.677183
vt 0.144805 0.996776
vt 0.111057 0.987227
vt 0.148100 0.802543
vt 0.142507 0.808900
vt 0.732555 0.893843
vt 0.722318 0.862366
vt 0.863667 0.665061
vt 0.898764 0.661837
vt 0.135791 0.824022
vt 0.866961 0.859293
vt 0.798815 0.690115
vt 0.881552 0.868387
vt 0.013694 0.896417
vt 0.861368 0.806326
vt 0.898764 0.871580
vt 0.898764 0.997426
vt 0.148100 0.861867
vt 0.854652 0.821447
vt 0.162691 0.793450
vt 0.162691 0.870961
vt 0.052692 0.713557
vt 0.854652 0.837815
vt 0.093612 0.020719
vt 0.128201 0.014297
vt 0.248965 0.664411
vt 0.059865 0.027845
vt 0.028256 0.035403
vt 0.000000 0.043100
vt 0.631911 0.007478
vt 0.597775 0.012786
vt 0.563186 0.019204
vt 0.529472 0.026487
vt 0.497929 0.034354
vt 0.916062 0.661240
vt 0.970643 0.000000
vt 0.945421 0.663765
vt 0.970643 0.664725
vt 0.248965 0.621310
vt 0.497929 0.000000
vt 0.277221 0.629008
vt 0.308829 0.636566
vt 0.342577 0.643692
vt 0.377165 0.650114
vt 0.411266 0.655583
vt 0.443568 0.659891
vt 0.472831 0.662872
vt 0.497929 0.664411
vt 0.718861 0.637274
vt 0.916062 0.000000
vt 0.747666 0.642930
vt 0.779803 0.648207
vt 0.814036 0.652901
vt 0.849051 0.656832
vt 0.883500 0.659849
vt 0.916062 0.661837
vt 0.970643 0.661270
vt 1.000000 0.000000
vt 1.000000 0.663285
vt 0.248965 0.000000
vt 0.223866 0.001539
vt 0.194604 0.004519
vt 0.162301 0.008827
vt 0.193468 0.665036
vt 0.312735 0.776066
vt 0.336859 0.777293
vt 0.288611 0.664411
vt 0.263001 0.665036
vt 0.425767 0.665156
vt 0.408974 0.664411
vt 0.219078 0.664411
vt 0.179903 0.664411
vt 0.898764 0.787682
vn 0.098000 0.000000 -0.995200
vn 0.290300 0.000000 -0.956900
vn 0.471400 0.000000 -0.881900
vn 0.634400 0.000000 -0.773000
vn 0.773000 0.000000 -0.634400
vn 0.881900 0.000000 -0.471400
vn 0.956900 0.000000 -0.290300
vn 0.995200 0.000000 -0.098000
vn 0.995200 0.000000 0.098000
vn 0.956900 0.000000 0.290300
vn 0.881900 0.000000 0.471400
vn 0.773000 0.000000 0.634400
vn 0.634400 0.000000 0.773000
vn 0.471400 0.000000 0.881900
vn 0.290300 0.000000 0.956900
vn 0.098000 0.000000 0.995200
vn -0.098000 0.000000 0.995200
vn -0.290300 0.000000 0.956900
vn -0.471400 0.000000 0.881900
vn -0.634400 0.000000 0.773000
vn -0.773000 0.000000 0.634400
vn -0.881900 0.000000 0.471400
vn -0.956900 0.000000 0.290300
vn -0.995200 0.000000 0.098000
vn -0.995200 0.000000 -0.098000
vn -0.956900 0.000000 -0.290300
vn -0.881900 0.000000 -0.471400
vn -0.773000 0.000000 -0.634400
vn -0.634400 0.000000 -0.773000
vn -0.471400 0.000000 -0.881900
vn 0.000000 0.000000 1.000000
vn -0.098000 0.000000 -0.995200
vn -0.290300 0.000000 -0.956900
vn -0.281000 0.251300 0.926200
vn -0.000000 -1.000000 0.000000
vn -0.456300 0.251300 0.853600
vn 0.456300 0.251300 0.853600
vn 0.281000 0.251300 0.926200
vn 0.094900 0.251300 0.963300
vn -0.094900 0.251300 0.963300
vn -0.614000 0.251300 0.748200
vn -0.748200 0.251300 0.614000
vn -0.853600 0.251300 0.456300
vn -0.926200 0.251300 0.281000
vn -0.963300 0.251300 0.094900
vn -0.963300 0.251300 -0.094900
vn -0.926200 0.251300 -0.281000
vn -0.853600 0.251300 -0.456300
vn -0.748200 0.251300 -0.614000
vn -0.614000 0.251300 -0.748200
vn -0.456300 0.251300 -0.853600
vn -0.281000 0.251300 -0.926200
vn -0.094900 0.251300 -0.963300
vn 0.094900 0.251300 -0.963300
vn 0.281000 0.251300 -0.926200
vn 0.456300 0.251300 -0.853600
vn 0.614000 0.251300 -0.748200
vn 0.748200 0.251300 -0.614000
vn 0.853600 0.251300 -0.456300
vn 0.926200 0.251300 -0.281000
vn 0.963300 0.251300 -0.094900
vn 0.963300 0.251300 0.094900
vn 0.926200 0.251300 0.281000
vn 0.853600 0.251300 0.456300
vn 0.748200 0.251300 0.614000
vn 0.614000 0.251300 0.748200
s off
f 2/1/1 4/2/1 3/3/1
f 4/2/2 6/4/2 5/5/2
f 6/6/3 8/7/3 7/8/3
f 8/7/4 10/9/4 9/10/4
f 9/10/5 10/9/5 12/11/5
f 12/11/6 14/12/6 13/13/6
f 14/12/7 16/14/7 15/15/7
f 16/14/8 18/16/8 17/17/8
f 18/16/9 20/18/9 19/19/9
f 20/18/10 22/20/10 21/21/10
f 21/22/11 22/23/11 24/24/11
f 23/25/12 24/24/12 26/26/12
f 25/27/13 26/26/13 28/28/13
f 28/28/14 30/29/14 29/30/14
f 30/29/15 32/31/15 31/32/15
f 31/32/16 32/31/16 34/33/16
f 34/33/17 36/34/17 35/35/17
f 36/34/18 38/36/18 37/37/18
f 37/38/19 38/39/19 40/40/19
f 40/40/20 42/41/20 41/42/20
f 41/42/21 42/41/21 44/43/21
f 44/43/22 46/44/22 45/45/22
f 46/44/23 48/46/23 47/47/23
f 48/46/24 50/48/24 49/49/24
f 50/48/25 52/50/25 51/51/25
f 52/36/26 54/52/26 53/53/26
f 54/52/27 56/54/27 55/55/27
f 55/55/28 56/54/28 58/56/28
f 57/57/29 58/56/29 60/58/29
f 60/58/30 62/59/30 61/60/30
f 44/61/31 86/61/31 87/61/31
f 63/62/32 64/63/32 2/1/32
f 61/60/33 62/59/33 64/63/33
f 114/64/34 129/65/34 115/66/34
f 90/67/35 89/68/35 121/69/35
f 22/61/31 75/61/31 76/61/31
f 50/61/31 89/61/31 90/61/31
f 6/61/31 67/61/31 68/61/31
f 28/61/31 78/61/31 79/61/31
f 56/61/31 92/61/31 93/61/31
f 34/61/31 81/61/31 82/61/31
f 12/61/31 70/61/31 71/61/31
f 62/61/31 95/61/31 96/61/31
f 40/61/31 84/61/31 85/61/31
f 18/61/31 73/61/31 74/61/31
f 46/61/31 87/61/31 88/61/31
f 24/61/31 76/61/31 77/61/31
f 52/61/31 90/61/31 91/61/31
f 8/61/31 68/61/31 69/61/31
f 30/61/31 79/61/31 80/61/31
f 58/61/31 93/61/31 94/61/31
f 36/61/31 82/61/31 83/61/31
f 14/61/31 71/61/31 72/61/31
f 64/61/31 96/61/31 65/61/31
f 42/61/31 85/61/31 86/61/31
f 20/61/31 74/61/31 75/61/31
f 48/61/31 88/61/31 89/61/31
f 4/61/31 66/61/31 67/61/31
f 26/61/31 77/61/31 78/61/31
f 54/61/31 91/61/31 92/61/31
f 10/61/31 69/61/31 70/61/31
f 32/61/31 80/61/31 81/61/31
f 60/61/31 94/61/31 95/61/31
f 38/61/31 83/61/31 84/61/31
f 2/61/31 65/61/31 66/61/31
f 16/61/31 72/61/31 73/61/31
f 115/66/36 129/65/36 116/70/36
f 67/71/35 99/72/35 100/73/35
f 79/74/35 78/75/35 110/76/35
f 88/77/35 87/78/35 119/79/35
f 65/80/35 97/81/35 98/82/35
f 76/83/35 108/84/35 109/85/35
f 96/86/35 128/87/35 97/81/35
f 86/88/35 85/89/35 117/90/35
f 74/91/35 106/92/35 107/93/35
f 95/94/35 94/95/35 126/96/35
f 83/97/35 115/98/35 116/99/35
f 73/100/35 72/101/35 104/102/35
f 92/103/35 124/104/35 125/105/35
f 81/106/35 113/107/35 114/108/35
f 70/109/35 102/110/35 103/111/35
f 90/67/35 122/112/35 123/113/35
f 69/114/35 68/115/35 100/73/35
f 79/74/35 111/116/35 112/117/35
f 88/77/35 120/118/35 121/119/35
f 66/120/35 98/82/35 99/72/35
f 77/121/35 109/85/35 110/76/35
f 87/78/35 86/88/35 118/122/35
f 75/123/35 107/93/35 108/84/35
f 95/94/35 127/124/35 128/87/35
f 85/89/35 84/125/35 116/99/35
f 73/126/35 105/127/35 106/92/35
f 93/128/35 125/105/35 126/96/35
f 82/129/35 114/108/35 115/98/35
f 71/130/35 103/111/35 104/102/35
f 91/131/35 123/113/35 124/104/35
f 70/109/35 69/114/35 101/132/35
f 80/133/35 112/117/35 113/107/35
f 111/134/37 110/135/37 129/136/37
f 112/137/38 111/134/38 129/136/38
f 113/138/39 112/137/39 129/136/39
f 114/139/40 113/138/40 129/136/40
f 116/70/41 129/65/41 117/140/41
f 117/140/42 129/65/42 118/141/42
f 118/141/43 129/65/43 119/142/43
f 119/142/44 129/65/44 120/143/44
f 120/143/45 129/65/45 121/144/45
f 121/145/46 129/146/46 122/147/46
f 122/147/47 129/146/47 123/148/47
f 123/149/48 129/150/48 124/151/48
f 124/151/49 129/150/49 125/152/49
f 125/152/50 129/150/50 126/153/50
f 126/153/51 129/150/51 127/154/51
f 127/154/52 129/150/52 128/155/52
f 128/155/53 129/150/53 97/156/53
f 97/156/54 129/150/54 98/157/54
f 98/157/55 129/150/55 99/158/55
f 99/159/56 129/160/56 100/161/56
f 100/161/57 129/160/57 101/162/57
f 101/162/58 129/160/58 102/163/58
f 102/163/59 129/160/59 103/164/59
f 103/164/60 129/160/60 104/165/60
f 104/165/61 129/160/61 105/166/61
f 105/167/62 129/168/62 106/169/62
f 106/170/63 129/136/63 107/171/63
f 107/171/64 129/136/64 108/172/64
f 108/172/65 129/136/65 109/173/65
f 109/173/66 129/136/66 110/135/66
f 1/174/1 2/1/1 3/3/1
f 3/3/2 4/2/2 5/5/2
f 5/175/3 6/6/3 7/8/3
f 7/8/4 8/7/4 9/10/4
f 11/176/5 9/10/5 12/11/5
f 11/176/6 12/11/6 13/13/6
f 13/13/7 14/12/7 15/15/7
f 15/15/8 16/14/8 17/17/8
f 17/17/9 18/16/9 19/19/9
f 19/19/10 20/18/10 21/21/10
f 23/25/11 21/22/11 24/24/11
f 25/27/12 23/25/12 26/26/12
f 27/177/13 25/27/13 28/28/13
f 27/177/14 28/28/14 29/30/14
f 29/30/15 30/29/15 31/32/15
f 33/178/16 31/32/16 34/33/16
f 33/178/17 34/33/17 35/35/17
f 35/35/18 36/34/18 37/37/18
f 39/179/19 37/38/19 40/40/19
f 39/179/20 40/40/20 41/42/20
f 43/180/21 41/42/21 44/43/21
f 43/180/22 44/43/22 45/45/22
f 45/45/23 46/44/23 47/47/23
f 47/47/24 48/46/24 49/49/24
f 49/49/25 50/48/25 51/51/25
f 51/37/26 52/36/26 53/53/26
f 53/53/27 54/52/27 55/55/27
f 57/57/28 55/55/28 58/56/28
f 59/181/29 57/57/29 60/58/29
f 59/181/30 60/58/30 61/60/30
f 46/61/31 44/61/31 87/61/31
f 1/174/32 63/62/32 2/1/32
f 63/62/33 61/60/33 64/63/33
f 122/112/35 90/67/35 121/69/35
f 24/61/31 22/61/31 76/61/31
f 52/61/31 50/61/31 90/61/31
f 8/61/31 6/61/31 68/61/31
f 30/61/31 28/61/31 79/61/31
f 58/61/31 56/61/31 93/61/31
f 36/61/31 34/61/31 82/61/31
f 14/61/31 12/61/31 71/61/31
f 64/61/31 62/61/31 96/61/31
f 42/61/31 40/61/31 85/61/31
f 20/61/31 18/61/31 74/61/31
f 48/61/31 46/61/31 88/61/31
f 26/61/31 24/61/31 77/61/31
f 54/61/31 52/61/31 91/61/31
f 10/61/31 8/61/31 69/61/31
f 32/61/31 30/61/31 80/61/31
f 60/61/31 58/61/31 94/61/31
f 38/61/31 36/61/31 83/61/31
f 16/61/31 14/61/31 72/61/31
f 2/61/31 64/61/31 65/61/31
f 44/61/31 42/61/31 86/61/31
f 22/61/31 20/61/31 75/61/31
f 50/61/31 48/61/31 89/61/31
f 6/61/31 4/61/31 67/61/31
f 28/61/31 26/61/31 78/61/31
f 56/61/31 54/61/31 92/61/31
f 12/61/31 10/61/31 70/61/31
f 34/61/31 32/61/31 81/61/31
f 62/61/31 60/61/31 95/61/31
f 40/61/31 38/61/31 84/61/31
f 4/61/31 2/61/31 66/61/31
f 18/61/31 16/61/31 73/61/31
f 68/115/35 67/71/35 100/73/35
f 111/116/35 79/74/35 110/76/35
f 120/118/35 88/77/35 119/79/35
f 66/120/35 65/80/35 98/82/35
f 77/121/35 76/83/35 109/85/35
f 65/80/35 96/86/35 97/81/35
f 118/122/35 86/88/35 117/90/35
f 75/123/35 74/91/35 107/93/35
f 127/124/35 95/94/35 126/96/35
f 84/125/35 83/97/35 116/99/35
f 105/182/35 73/100/35 104/102/35
f 93/128/35 92/103/35 125/105/35
f 82/129/35 81/106/35 114/108/35
f 71/130/35 70/109/35 103/111/35
f 91/131/35 90/67/35 123/113/35
f 101/132/35 69/114/35 100/73/35
f 80/133/35 79/74/35 112/117/35
f 89/183/35 88/77/35 121/119/35
f 67/71/35 66/120/35 99/72/35
f 78/75/35 77/121/35 110/76/35
f 119/79/35 87/78/35 118/122/35
f 76/83/35 75/123/35 108/84/35
f 96/86/35 95/94/35 128/87/35
f 117/90/35 85/89/35 116/99/35
f 74/91/35 73/126/35 106/92/35
f 94/95/35 93/128/35 126/96/35
f 83/97/35 82/129/35 115/98/35
f 72/101/35 71/130/35 104/102/35
f 92/103/35 91/131/35 124/104/35
f 102/110/35 70/109/35 101/132/35
f 81/106/35 80/133/35 113/107/35
